# AST/ASF file generated using VICON BodyLanguage
# -----------------------------------------------
:version 1.10
:name VICON
:units
  mass 1.0
  length 0.45
  angle deg
:documentation
   .ast/.asf automatically generated from VICON data using
   VICON BodyBuilder and BodyLanguage model FoxedUp or BRILLIANT.MOD
:root
   order TX TY TZ RX RY RZ
   axis XYZ
   position 0 0 0  
   orientation 0 0 0 
:bonedata
  begin
     id 1 
     name lhipjoint
     direction 0.623529 -0.717805 0.309788 
     length 2.23224 
     axis 0 0 0  XYZ
  end
  begin
     id 2 
     name lfemur
     direction 0.34202 -0.939693 0  
     length 7.11402  
     axis 0 0 20  XYZ
    dof rx ry rz
    limits (-160.0 20.0)
           (-70.0 70.0)
           (-60.0 70.0)
  end
  begin
     id 3 
     name ltibia
     direction 0.34202 -0.939693 0   
     length 6.78496   
     axis 0 0 20   XYZ
    dof rx
    limits (-10.0 170.0)
  end
  begin
     id 4 
     name lfoot
     direction 0.125078 -0.343648 0.930732   
     length 1.84054   
     axis -90 7.62852e-016 20   XYZ
    dof rx rz
    limits (-45.0 90.0)
           (-70.0 20.0)
  end
  begin
     id 5 
     name ltoes
     direction 1.53565e-011 -4.21893e-011 1   
     length 0.916474   
     axis -90 7.62852e-016 20   XYZ
    dof rx
    limits (-90.0 20.0)
  end
  begin
     id 6 
     name rhipjoint
     direction -0.564688 -0.757748 0.327026   
     length 2.11457  
     axis 0 0 0  XYZ 
  end
  begin
     id 7 
     name rfemur
     direction -0.34202 -0.939693 0   
     length 7.14609   
     axis 0 0 -20   XYZ
    dof rx ry rz
    limits (-160.0 20.0)
           (-70.0 70.0)
           (-70.0 60.0)
  end
  begin
     id 8 
     name rtibia
     direction -0.34202 -0.939693 0   
     length 6.78101   
     axis 0 0 -20   XYZ
    dof rx
    limits (-10.0 170.0)
 end
 begin
     id 9 
     name rfoot
     direction -0.0992671 -0.272734 0.956955   
     length 1.96168  
     axis -90 -7.62852e-016 -20   XYZ
    dof rx rz
    limits (-45.0 90.0)
           (-20.0 70.0)
  end
  begin
     id 10 
     name rtoes
     direction -1.5356e-011 -4.21891e-011 1   
     length 0.982933   
     axis -90 -7.62852e-016 -20   XYZ
    dof rx
    limits (-90.0 20.0)
  end
  begin
     id 11 
     name lowerback
     direction -0.00596953 0.998668 0.0512524   
     length 1.87557   
     axis 0 0 0   XYZ
    dof rx ry rz
    limits (-20.0 45.0)
           (-30.0 30.0)
           (-30.0 30.0)
  end
  begin
     id 12 
     name upperback
     direction 0.00584879 0.999652 0.0257308   
     length 1.87883   
     axis 0 0 0   XYZ
    dof rx ry rz
    limits (-20.0 45.0)
           (-30.0 30.0)
           (-30.0 30.0)
  end
  begin
     id 13 
     name thorax
     direction 0.010104 0.999947 0.00178881   
     length 1.87779   
     axis 0 0 0   XYZ
    dof rx ry rz
    limits (-20.0 45.0)
           (-30.0 30.0)
           (-30.0 30.0)
  end
  begin
     id 14 
     name lowerneck
     direction 0.0120771 0.995934 -0.0892773   
     length 1.40897   
     axis 0 0 0   XYZ
    dof rx ry rz
    limits (-20.0 45.0)
           (-30.0 30.0)
           (-30.0 30.0)
  end
  begin
     id 15 
     name upperneck
     direction -0.030568 0.999465 -0.0116366   
     length 1.38661   
     axis 0 0 0   XYZ
    dof rx ry rz
    limits (-20.0 45.0)
           (-30.0 30.0)
           (-30.0 30.0)
  end
  begin
     id 16
     name head
     direction -0.0170715 0.999854 -0.00104426  
     length 1.47052  
     axis 0 0 0   XYZ
    dof rx ry rz
    limits (-20.0 45.0)
           (-30.0 30.0)
           (-30.0 30.0)
  end
  begin
     id 17 
     name lclavicle
     direction 0.977763 0.206143 0.038532  
     length 3.02424  
     axis 0 0 0   XYZ
    dof ry rz
    limits (-20.0 10.0)
           (0.0 20.0)
  end
  begin
     id 18 
     name lhumerus
     direction 1 -4.48965e-011 -2.62654e-027   
     length 4.68382   
     axis 180 -30 -90   XYZ
    dof rx ry rz
    limits (-60.0 90.0)
           (-90.0 90.0)
           (-90.0 90.0)
  end
  begin
     id 19
     name lradius
     direction 1 -4.48973e-011 -1.54954e-027   
     length 2.98124   
     axis 180 -30 -90   XYZ
    dof rx
    limits (-10.0 170.0)
  end
  begin
     id 20
     name lwrist
     direction 1 -4.48959e-011 7.20928e-028   
     length 1.49062   
     axis -5.52449e-016 90 90   XYZ
    dof ry
    limits (-180.0 0.0)
 end
  begin
     id 21 
     name lhand
     direction 1 -4.48971e-011 1.44186e-027   
     length 0.707595   
     axis -9.20027e-016 90 90   XYZ
    dof rx rz
    limits (-90.0 90.0)
           (-45.0 45.0)
  end
  begin
     id 22 
     name lfingers
     direction 1 -4.48985e-011 2.88371e-027   
     length 0.570481   
     axis -1.84005e-015 90 90   XYZ
    dof rx
    limits (0.0 90.0)
  end
  begin
     id 23
     name lthumb
     direction 0.707107 -6.34929e-011 0.707107   
     length 0.819101   
     axis -90 45 2.85299e-015   XYZ
    dof rx rz
    limits (-45.0 45.0)
           (-45.0 45.0)
  end
  begin
     id 24 
     name rclavicle
     direction -0.958661 0.284411 -0.00895327   
     length 3.11921  
     axis 0 0 0   XYZ 
    dof ry rz
    limits (-10.0 20.0)
           (-20.0 0.0)
  end
  begin
     id 25 
     name rhumerus
     direction -1 -4.48963e-011 -4.22193e-027  
     length 4.75876   
     axis 180 30 90   XYZ
    dof rx ry rz
    limits (-90.0 60.0)
           (-90.0 90.0)
           (-90.0 90.0)
  end
  begin
     id 26 
     name rradius
     direction -1 -4.48968e-011 -1.07616e-027   
     length 2.93293   
     axis 180 30 90   XYZ
    dof rx
    limits (-10.0 170.0)
  end
  begin
     id 27 
     name rwrist
     direction -1 -4.48965e-011 7.20928e-028   
     length 1.46647   
     axis -5.52449e-016 -90 -90   XYZ
    dof ry
    limits (-180.0 0.0)
  end
  begin
     id 28
     name rhand
     direction -1 -4.48971e-011 1.44186e-027   
     length 0.831748   
     axis -9.20027e-016 -90 -90   XYZ
    dof rx rz
    limits (-90.0 90.0)
           (-45.0 45.0)
  end
  begin
     id 29
     name rfingers
     direction -1 -4.48961e-011 2.88371e-027   
     length 0.670577   
     axis -1.84005e-015 -90 -90   XYZ
    dof rx
    limits (0.0 90.0)
  end
  begin
     id 30
     name rthumb
     direction -0.707107 -6.34929e-011 0.707107   
     length 0.962818   
     axis -90 -45 -2.85299e-015   XYZ
    dof rx rz
    limits (-45.0 45.0)
           (-45.0 45.0)
  end
:hierarchy
  begin
    root lhipjoint rhipjoint lowerback
    lhipjoint lfemur
    lfemur ltibia
    ltibia lfoot
    lfoot ltoes
    rhipjoint rfemur
    rfemur rtibia
    rtibia rfoot
    rfoot rtoes
    lowerback upperback
    upperback thorax
    thorax lowerneck lclavicle rclavicle
    lowerneck upperneck
    upperneck head
    lclavicle lhumerus
    lhumerus lradius
    lradius lwrist
    lwrist lhand lthumb
    lhand lfingers
    rclavicle rhumerus
    rhumerus rradius
    rradius rwrist
    rwrist rhand rthumb
    rhand rfingers
  end

#!OML:ASF E:\id_vita\Project 1\Capture day 1\Session 1\Female.ASF
:FULLY-SPECIFIED
:DEGREES
588
root 6.91607 27.2796 0.281566 585.477 93.0362 568.695
lowerback -17.257 -2.55409 -5.27995
upperback -4.22072 -2.28964 1.11729
thorax 5.38833 -1.08965 3.69942
lowerneck 4.98411 2.2964 -3.3615
upperneck -5.61764 3.13955 4.58932
head -2.82299 1.49315 1.95686
rclavicle 1.05705e-014 3.27995e-015
rhumerus 48.8279 7.21507 -17.3912
rradius 84.9406
rwrist -19.4161
rhand 1.76805 -1.76512
rfingers 7.12502
rthumb 27.2827 -29.8114
lclavicle 1.05705e-014 3.27995e-015
lhumerus 62.338 -1.65583 19.9072
lradius 32.1318
lwrist -26.5891
lhand -18.0695 13.5919
lfingers 7.12502
lthumb 8.20331 43.4126
rfemur -21.6551 11.3372 17.9287
rtibia 24.1956
rfoot -10.6287 -17.8611
rtoes -9.27641
lfemur -17.0178 -13.8495 -19.4652
ltibia 22.3256
lfoot -20.5891 11.1699
ltoes 3.07698
589
root 6.92207 27.2821 0.286074 585.801 93.0017 568.976
lowerback -17.0635 -2.5041 -5.22084
upperback -4.33196 -2.24231 1.10028
thorax 5.158 -1.0563 3.66386
lowerneck 5.07626 2.2673 -3.45203
upperneck -5.71245 3.09935 4.6561
head -2.87477 1.47164 1.99752
rclavicle -2.33626e-014 -1.35174e-014
rhumerus 49.3721 7.46497 -16.9435
rradius 83.5909
rwrist -18.1689
rhand 1.35452 -1.76005
rfingers 7.12502
rthumb 26.8871 -29.8679
lclavicle -2.33626e-014 -1.35174e-014
lhumerus 62.2154 -1.95252 19.2723
lradius 32.4584
lwrist -26.0523
lhand -17.9708 14.2258
lfingers 7.12502
lthumb 8.29855 44.0428
rfemur -21.643 11.3778 17.9423
rtibia 24.1361
rfoot -10.5126 -17.9299
rtoes -9.19188
lfemur -17.0612 -13.8467 -19.4427
ltibia 22.3767
lfoot -20.4642 11.163
ltoes 2.79988
590
root 6.92778 27.2858 0.289268 587.088 92.866 570.209
lowerback -16.5918 -2.41054 -5.06048
upperback -4.60344 -2.16418 1.0356
thorax 4.60012 -0.993712 3.53424
lowerneck 5.02819 2.18155 -3.61664
upperneck -5.55771 2.9839 4.89455
head -2.8185 1.41156 2.11168
rclavicle 1.68638e-014 1.2424e-014
rhumerus 49.5725 7.69336 -16.5284
rradius 82.3755
rwrist -17.3199
rhand 1.03135 -1.32466
rfingers 7.12502
rthumb 26.5779 -29.4797
lclavicle 1.68638e-014 1.2424e-014
lhumerus 62.4373 -2.35539 19.2685
lradius 32.366
lwrist -26.0268
lhand -17.9869 14.9206
lfingers 7.12502
lthumb 8.28297 44.7382
rfemur -21.6212 11.3198 17.9881
rtibia 24.0554
rfoot -10.446 -17.9712
rtoes -9.0865
lfemur -17.1262 -13.7931 -19.3892
ltibia 22.4395
lfoot -20.1985 10.8702
ltoes 2.67361
591
root 6.93279 27.2878 0.293235 589.068 92.7467 572.195
lowerback -16.5951 -2.35115 -5.09336
upperback -4.5259 -2.08313 1.0458
thorax 4.67779 -0.959069 3.57974
lowerneck 4.8973 2.09677 -3.85055
upperneck -5.58818 2.86804 5.04161
head -2.80813 1.35638 2.20949
rclavicle -2.43142e-014 2.28602e-015
rhumerus 49.9071 7.498 -15.926
rradius 81.1314
rwrist -16.9968
rhand 0.650054 -0.66288
rfingers 7.12502
rthumb 26.2129 -28.8727
lclavicle -2.43142e-014 2.28602e-015
lhumerus 62.9114 -2.23545 19.8356
lradius 32.0593
lwrist -26.4652
lhand -17.8567 15.2246
lfingers 7.12502
lthumb 8.40862 45.0372
rfemur -21.534 11.2609 18.015
rtibia 23.9657
rfoot -10.4532 -18.03
rtoes -9.176
lfemur -17.131 -13.8578 -19.362
ltibia 22.5057
lfoot -20.037 10.5349
ltoes 3.10548
592
root 6.93837 27.2888 0.298507 591.669 92.6511 574.838
lowerback -16.742 -2.35376 -5.08713
upperback -4.34427 -2.07996 0.983104
thorax 4.94734 -0.970703 3.50468
lowerneck 4.92147 2.08041 -3.91504
upperneck -5.77684 2.85379 5.11223
head -2.87931 1.34812 2.24712
rclavicle 1.93823e-014 -3.97569e-015
rhumerus 50.4274 7.26094 -15.6693
rradius 79.8684
rwrist -16.9341
rhand 0.205026 0.192241
rfingers 7.12502
rthumb 25.7867 -28.0802
lclavicle 1.93823e-014 -3.97569e-015
lhumerus 62.8338 -2.1991 18.9674
lradius 32.585
lwrist -25.6516
lhand -17.2615 15.2003
lfingers 7.12502
lthumb 8.98303 44.9891
rfemur -21.4073 11.2355 18.0203
rtibia 23.8877
rfoot -10.3937 -18.1015
rtoes -9.3383
lfemur -17.1089 -13.9963 -19.3657
ltibia 22.5584
lfoot -20.017 10.4016
ltoes 3.45124
593
root 6.94514 27.2901 0.302502 593.895 92.5645 577.033
lowerback -16.3415 -2.38394 -5.09034
upperback -4.53961 -2.1405 0.999685
thorax 4.53135 -0.984456 3.52221
lowerneck 5.13724 2.12693 -3.8757
upperneck -5.85997 2.91096 5.05188
head -2.94872 1.37416 2.21718
rclavicle 1.22319e-014 4.37326e-015
rhumerus 50.933 7.40573 -15.466
rradius 78.8206
rwrist -16.8779
rhand -0.0287574 0.657025
rfingers 7.12502
rthumb 25.5628 -27.6477
lclavicle 1.22319e-014 4.37326e-015
lhumerus 63.0521 -2.18879 20.0506
lradius 31.9948
lwrist -26.6698
lhand -16.6992 14.3987
lfingers 7.12502
lthumb 9.52561 44.1634
rfemur -21.374 11.2333 18.0145
rtibia 23.8308
rfoot -10.3322 -18.1505
rtoes -9.06643
lfemur -17.157 -14.0415 -19.3549
ltibia 22.5863
lfoot -19.9611 10.3578
ltoes 3.4131
